<svg xmlns="http://www.w3.org/2000/svg" viewBox="0 0 800 450" role="img" aria-label="Stadium"><defs><linearGradient id="g" x1="0" y1="0" x2="0" y2="1"><stop offset="0" stop-color="#102a22"/><stop offset="1" stop-color="#07070a"/></linearGradient><linearGradient id="sky" x1="0" y1="0" x2="0" y2="1"><stop offset="0" stop-color="#0a1230"/><stop offset="1" stop-color="#102a22"/></linearGradient></defs><rect width="800" height="450" fill="url(#g)"/><polygon points="108.28571428571429,0 120.28571428571429,0 204.28571428571428,330 24.285714285714292,330" fill="#35c97f" opacity=".13"/><polygon points="222.57142857142858,0 234.57142857142858,0 318.57142857142856,330 138.57142857142858,330" fill="#35c97f" opacity=".13"/><polygon points="336.85714285714283,0 348.85714285714283,0 432.85714285714283,330 252.85714285714283,330" fill="#35c97f" opacity=".13"/><polygon points="451.14285714285717,0 463.14285714285717,0 547.1428571428571,330 367.14285714285717,330" fill="#35c97f" opacity=".13"/><polygon points="565.4285714285714,0 577.4285714285714,0 661.4285714285714,330 481.42857142857144,330" fill="#35c97f" opacity=".13"/><polygon points="679.7142857142857,0 691.7142857142857,0 775.7142857142857,330 595.7142857142857,330" fill="#35c97f" opacity=".13"/><path stroke="#000" stroke-opacity=".55" stroke-width="12" stroke-linecap="round" d="M3 251h0M21 256h0M34 256h0M42 252h0M57 252h0M70 255h0M81 254h0M101 254h0M107 253h0M121 256h0M138 254h0M151 254h0M161 254h0M173 251h0M195 254h0M200 250h0M220 251h0M233 250h0M242 256h0M260 256h0M274 254h0M285 253h0M301 255h0M308 254h0M324 251h0M339 253h0M349 255h0M360 256h0M380 250h0M392 254h0M400 252h0M414 253h0M427 251h0M447 254h0M457 251h0M472 251h0M483 251h0M497 253h0M511 255h0M526 253h0M536 250h0M553 254h0M564 253h0M580 252h0M592 254h0M604 254h0M616 255h0M629 251h0M644 254h0M657 251h0M671 255h0M683 250h0M700 255h0M714 253h0M725 255h0M741 255h0M749 252h0M767 255h0M776 254h0M795 251h0M5 266h0M17 272h0M28 272h0M42 272h0M60 269h0M72 269h0M85 270h0M100 267h0M111 268h0M125 270h0M137 266h0M151 270h0M166 268h0M180 270h0M193 272h0M202 267h0M217 268h0M230 268h0M245 271h0M254 270h0M269 268h0M286 268h0M296 267h0M313 270h0M324 270h0M338 270h0M351 268h0M366 268h0M374 272h0M392 269h0M402 268h0M418 268h0M432 271h0M441 271h0M455 270h0M472 268h0M482 271h0M500 270h0M510 267h0M523 268h0M534 271h0M550 269h0M563 266h0M577 268h0M587 269h0M602 271h0M615 272h0M632 268h0M642 266h0M658 270h0M667 267h0M686 266h0M695 266h0M712 267h0M722 267h0M738 269h0M754 268h0M760 271h0M774 271h0M789 268h0M7 286h0M16 285h0M31 284h0M45 285h0M59 282h0M72 283h0M82 287h0M100 286h0M114 288h0M125 286h0M141 283h0M148 286h0M164 285h0M180 282h0M192 284h0M207 283h0M220 288h0M229 286h0M244 283h0M260 284h0M272 287h0M286 284h0M301 287h0M314 287h0M325 283h0M334 286h0M355 286h0M367 284h0M376 282h0M390 282h0M407 286h0M416 283h0M434 283h0M444 285h0M455 285h0M471 286h0M484 287h0M498 285h0M513 287h0M524 284h0M538 283h0M550 283h0M560 286h0M579 287h0M589 283h0M604 284h0M615 285h0M629 284h0M641 282h0M658 284h0M674 282h0M685 286h0M693 286h0M713 288h0M722 288h0M740 286h0M751 285h0M768 285h0M775 284h0M794 283h0M0 303h0M14 299h0M27 299h0M42 301h0M54 302h0M69 304h0M82 303h0M101 301h0M110 302h0M126 302h0M137 299h0M153 299h0M165 301h0M180 303h0M190 303h0M201 300h0M219 300h0M229 299h0M241 302h0M261 302h0M271 300h0M285 301h0M299 299h0M310 299h0M320 299h0M334 302h0M354 301h0M362 304h0M381 299h0M390 304h0M406 298h0M421 301h0M430 301h0M445 301h0M461 302h0M470 302h0M482 301h0M495 303h0M509 300h0M527 302h0M538 302h0M553 303h0M565 298h0M579 302h0M590 300h0M602 304h0M619 301h0M634 301h0M641 299h0M660 299h0M672 303h0M683 299h0M699 304h0M710 298h0M727 303h0M738 300h0M755 301h0M762 299h0M781 299h0M791 298h0M0 317h0M18 319h0M30 315h0M42 318h0M60 318h0M74 318h0M87 317h0M101 316h0M108 320h0M124 314h0M139 316h0M150 318h0M164 316h0M175 315h0M187 316h0M204 319h0M218 318h0M228 316h0M246 315h0M258 320h0M269 319h0M288 320h0M299 320h0M309 314h0M325 314h0M336 314h0M351 320h0M365 318h0M379 317h0M392 314h0M403 315h0M416 315h0M434 317h0M444 316h0M458 317h0M471 318h0M487 315h0M495 318h0M510 315h0M521 316h0M540 315h0M547 317h0M560 317h0M578 314h0M593 319h0M600 314h0M617 316h0M627 315h0M645 315h0M660 318h0M673 318h0M684 317h0M694 314h0M712 319h0M725 317h0M740 315h0M751 318h0M766 315h0M773 318h0M791 317h0M1 336h0M15 335h0M28 332h0M42 335h0M59 331h0M72 331h0M87 335h0M95 332h0M107 333h0M126 334h0M138 331h0M154 335h0M167 334h0M177 331h0M193 335h0M208 333h0M215 332h0M231 334h0M245 331h0M259 334h0M269 334h0M286 334h0M293 331h0M314 332h0M324 335h0M336 330h0M349 331h0M362 333h0M374 336h0M388 330h0M403 336h0M417 336h0M432 334h0M447 333h0M456 335h0M468 330h0M485 331h0M497 332h0M510 335h0M528 335h0M539 336h0M551 332h0M563 335h0M574 335h0M590 331h0M603 334h0M621 334h0M630 331h0M642 336h0M655 335h0M668 335h0M680 334h0M693 332h0M714 334h0M727 332h0M736 332h0M749 332h0M765 330h0M777 332h0M787 330h0M7 352h0M14 350h0M33 349h0M47 349h0M56 348h0M70 348h0M85 350h0M97 347h0M113 346h0M124 350h0M141 349h0M153 351h0M167 351h0M179 349h0M188 351h0M203 351h0M214 348h0M228 352h0M242 351h0M258 350h0M274 347h0M286 347h0M301 348h0M308 347h0M320 348h0M334 346h0M350 348h0M365 351h0M375 346h0M390 349h0M405 352h0M419 351h0M435 348h0M445 348h0M458 349h0M474 348h0M486 348h0M495 351h0M509 347h0M523 347h0M541 346h0M550 350h0M565 349h0M578 351h0M594 349h0M606 348h0M615 350h0M628 346h0M646 351h0M655 350h0M669 350h0M685 347h0M701 347h0M712 350h0M721 346h0M740 351h0M747 347h0M762 350h0M774 350h0M794 351h0M2 366h0M16 364h0M27 364h0M46 366h0M61 366h0M72 364h0M82 364h0M99 365h0M113 368h0M124 367h0M137 363h0M151 362h0M164 366h0M174 366h0M190 368h0M204 364h0M217 363h0M232 367h0M243 364h0M257 366h0M269 364h0M283 362h0M297 367h0M311 366h0M328 363h0M338 364h0M352 364h0M362 366h0M374 368h0M390 363h0M406 363h0M416 365h0M433 367h0M444 365h0M454 364h0M469 363h0M481 363h0M498 365h0M514 367h0M526 367h0M537 367h0M550 363h0M564 364h0M576 367h0M588 367h0M606 366h0M617 363h0M634 362h0M646 365h0M659 364h0M667 364h0M685 365h0M700 366h0M711 363h0M723 365h0M735 365h0M749 367h0M760 364h0M777 363h0M790 362h0"/><g transform="translate(400 345)"><polygon points="-150,0 150,0 190,40 -190,40" fill="#1c1c25"/><polygon points="-150,0 150,0 130,-26 -130,-26" fill="#0d0d12" stroke="#35c97f" stroke-width="2"/><path d="M-130 -26V-70M130 -26V-70M-130 -50H130M-130 -66H130" stroke="#35c97f" stroke-width="2.5" fill="none"/></g></svg>